<svg xmlns="http://www.w3.org/2000/svg" viewBox="0 0 800 500" width="800" height="500" role="img" aria-label="Creative Katana V2">
  <defs>
    <linearGradient id="bg" x1="0" y1="0" x2="1" y2="1"><stop offset="0" stop-color="#0d111a"/><stop offset="1" stop-color="#171d2b"/></linearGradient>
    <linearGradient id="bar" x1="0" y1="0" x2="0" y2="1"><stop offset="0" stop-color="#222a3a"/><stop offset="1" stop-color="#141a26"/></linearGradient>
    <linearGradient id="rgb" x1="0" y1="0" x2="1" y2="0"><stop offset="0" stop-color="#ff5d5d"/><stop offset="0.3" stop-color="#ffd35d"/><stop offset="0.55" stop-color="#5dff9e"/><stop offset="0.8" stop-color="#5db5ff"/><stop offset="1" stop-color="#b15dff"/></linearGradient>
    <filter id="blur" x="-20%" y="-20%" width="140%" height="140%"><feGaussianBlur stdDeviation="7"/></filter>
    <pattern id="g_creative-sound-blaster-katana-v2" width="14" height="14" patternUnits="userSpaceOnUse"><circle cx="4" cy="4" r="2" fill="#000" opacity="0.35"/></pattern>
  </defs>
  <rect width="800" height="500" fill="url(#bg)"/>
  <ellipse cx="400" cy="150" rx="300" ry="170" fill="#F5821F" opacity="0.12"/>
  <rect x="150" y="312" width="500" height="22" rx="11" fill="url(#rgb)" opacity="0.85" filter="url(#blur)"/>
  <!-- barre -->
  <rect x="150" y="250" width="500" height="74" rx="16" fill="url(#bar)" stroke="#F5821F" stroke-width="2.5"/>
  <rect x="170" y="262" width="460" height="50" rx="10" fill="url(#g_creative-sound-blaster-katana-v2)"/>
  <circle cx="205" cy="287" r="20" fill="#0a0d12" stroke="#F5821F" stroke-width="2"/>
  <circle cx="595" cy="287" r="20" fill="#0a0d12" stroke="#F5821F" stroke-width="2"/>
  <circle cx="400" cy="287" r="6" fill="#F5821F"/>
  
    <rect x="560" y="330" width="150" height="130" rx="16" fill="#11161f" stroke="#2a3346" stroke-width="2"/>
    <circle cx="635" cy="395" r="46" fill="#0a0d12" stroke="#F5821F" stroke-width="3"/>
    <circle cx="635" cy="395" r="22" fill="#161c26"/>
    <circle cx="635" cy="395" r="7" fill="#2a3346"/>
  <text x="64" y="92" font-family="DejaVu Sans, sans-serif" font-size="24" font-weight="700" letter-spacing="4" fill="#F5821F">CREATIVE</text>
  <text x="64" y="150" font-family="DejaVu Sans, sans-serif" font-size="50" font-weight="800" fill="#eef2f8">Katana V2</text>
  <text x="64" y="472" font-family="DejaVu Sans, sans-serif" font-size="17" fill="#8893ab">Illustration — la photo officielle peut differer</text>
</svg>
